 <svg width="516.75" height="77.25928015874022" viewBox="-4 0 373.6101694915254 55.85844751794907" class="css-1j8o68f"><defs id="SvgjsDefs9409"><linearGradient id="SvgjsLinearGradient9414"><stop id="SvgjsStop9415" stop-color="#ef4136" offset="0"></stop><stop id="SvgjsStop9416" stop-color="#fbb040" offset="1"></stop></linearGradient><linearGradient id="SvgjsLinearGradient9417"><stop id="SvgjsStop9418" stop-color="#ef4136" offset="0"></stop><stop id="SvgjsStop9419" stop-color="#fbb040" offset="1"></stop></linearGradient></defs><g id="SvgjsG9410" featurekey="symbolFeature-0" transform="matrix(0.6673729450015758,0,0,0.6673729450015758,-10.67372945001576,-5.3452993318148145)" fill="url(#SvgjsLinearGradient9414)"><g xmlns="http://www.w3.org/2000/svg" transform="translate(0,-952.36218)"><path style="color:;enable-background:accumulate;" d="m 61.183861,969.36977 c -6.72097,-0.12 -13.35479,1.1743 -19.74859,4.1557 l -4.18721,6.4056 c 2.12081,-0.3708 4.34138,-0.7864 6.56204,-1.1874 1.90134,-0.3545 3.72447,-0.6312 5.53085,-0.6247 2.18286,0.329 1.72941,1.891 0.81245,3.4371 -1.12654,1.4428 -2.49676,2.6686 -3.71849,3.8121 l 3.56225,0 c 0.52354,1e-4 0.99988,0.4763 0.99993,0.9999 -0.0642,0.8412 -0.50712,1.3839 -0.96868,1.9685 2.46225,-0.7037 4.62909,-1.6079 7.06199,-2.0623 2.22637,-0.4892 3.26576,0.6686 3.12478,2.7809 -0.10816,0.8652 -0.38538,1.8504 -0.78119,2.906 -0.79164,2.1109 -2.06148,4.4361 -3.71849,6.093 -0.2307,0.2353 -0.58279,0.3443 -0.90618,0.2813 l -14.99894,-2.9997 c -0.44813,-0.086 -0.80644,-0.5125 -0.81244,-0.9687 l 0,-1.1873 -9.59307,-0.5 c 2.15632,3.3034 12.04165,5.5123 18.18621,6.4056 0.98968,6.04193 2.97005,12.10193 -5.93708,15.12323 -7.91745,3.0211 -13.852,4.0308 -20.77977,4.0308 -0.78534,1.5983 1.53701,8.2637 5.49961,13.4672 5.87201,-6.5809 14.98145,-7.805 22.18592,-9.2177 9.27121,-1.8298 23.57109,-5.0864 40.99709,-16.4669 0.60818,-2.5402 0.68508,-5.2399 -0.37498,-7.93653 0,-5.0351 -0.01,-11.071 -3.96846,-14.0922 l -5.93708,-11.0925 c -6.06179,-2.2026 -12.11355,-3.4241 -18.09247,-3.5308 z m -23.24834,5.8118 -27.93552,9.8114 c 0,1.5911 8.11663,3.9959 14.46772,5.4369 l 15.71764,0.9374 c 0.45836,0.088 0.82044,0.5333 0.81244,0.9999 l 0,1.156 13.59278,2.7185 c 1.21172,-1.3492 2.31836,-3.2656 2.96854,-4.9994 0.42134,-1.0374 0.59789,-2.0305 0.6874,-3.0935 -3.80614,0.5477 -7.43753,2.277 -10.99922,3.1875 -0.81545,0.2483 -1.60556,-0.9366 -1.06242,-1.5936 0.6728,-0.8631 1.4517,-1.64 2.0936,-2.3748 l -4.28095,0 c -0.76054,0 -1.2489,-1.082 -0.74994,-1.656 1.85795,-2.0308 3.85351,-3.4695 5.40586,-5.5931 -1.5034,0.068 -3.17835,0.3617 -4.46843,0.5935 -2.97479,0.537 -6.48846,1.2816 -9.06185,1.6248 -0.75881,0.088 -1.37216,-0.934 -0.93744,-1.5624 z m 15.06143,15.1858 c 1.10449,0 1.99985,0.8953 1.99985,1.9998 0,1.1044 -0.89536,1.9997 -1.99985,1.9997 -1.1045,0 -1.99986,-0.8953 -1.99986,-1.9997 0,-1.1045 0.89536,-1.9998 1.99986,-1.9998 z m 35.62246,18.62283 c -16.75017,10.4888 -30.67921,13.6897 -39.68468,15.4671 -7.67882,1.4157 -16.54486,2.9824 -21.27973,8.8113 0.67456,0.7614 1.38259,1.4642 2.12484,2.0936 12.86585,-13.0914 19.79432,-0.023 57.40218,-23.1848 0.49484,-1.007 1.00249,-2.0706 1.43739,-3.1872 z" fill="url(#SvgjsLinearGradient9414)" stroke="none" marker="none" visibility="visible" display="inline" overflow="visible"></path></g></g><g id="SvgjsG9411" featurekey="nameFeature-0" transform="matrix(1.7477274422954916,0,0,1.7477274422954916,73.00000333352554,-15.239097034181748)" fill="url(#SvgjsLinearGradient9417)"><path d="M1.08 31.84 c0.36 -1.84 0.76 -3.8 1.2 -5.68 c0.4 -1.84 0.8 -3.56 1.08 -4.84 c0.76 -3.48 1.64 -7.96 1.96 -10.24 c0.12 -0.84 0.88 -1.4 1.68 -1.28 l1.28 0.2 c0.68 -0.16 1.56 -0.28 2.52 -0.36 c1.2 -0.12 2.48 -0.16 3.6 -0.2 c1.32 0 3.08 -0.04 4.48 -0.08 c0.36 0 0.68 0 0.96 -0.04 c0.32 0 0.56 0 0.76 -0.04 c0.44 0 0.68 -0.04 0.68 -0.04 s0.24 0.76 0.16 1.52 c-0.04 0.8 -0.12 1 -0.08 1.52 c0 0.52 -0.04 0.84 -0.04 0.84 c-0.68 -0.04 -1.36 -0.08 -2.04 -0.16 l0 0.28 c0.6 0.12 1.24 0.24 1.88 0.32 c0 0 0.04 0.96 -0.08 1.76 l-0.24 0 c-0.16 -0.04 -0.4 -0.04 -0.68 -0.08 c-0.6 -0.04 -1.36 -0.12 -2.2 -0.2 c-1.72 -0.16 -3.64 -0.32 -4.8 -0.32 c-0.8 0 -1.64 0.04 -2.44 0.16 c-0.32 0 -0.6 0.04 -0.84 0.08 c-0.16 0.88 -0.36 1.84 -0.52 2.84 c-0.28 1.4 -0.6 2.84 -0.88 4.32 c0.24 0 0.52 0 0.76 -0.04 c0.92 0 1.92 -0.04 2.84 -0.08 c1.08 -0.08 2.56 -0.2 3.76 -0.32 c1.24 -0.12 2.2 -0.2 2.2 -0.2 s0.16 0.76 0.12 1.52 c-0.04 0.8 -0.12 1 -0.08 1.52 c0 0.52 -0.04 0.84 -0.04 0.84 c-0.56 -0.04 -1.12 -0.08 -1.72 -0.12 l0 0.32 c0.56 0.08 1.08 0.16 1.6 0.24 c0 0 0.04 0.96 -0.04 1.76 c0 0 -1.12 -0.08 -2.56 -0.16 s-3.16 -0.12 -4.24 -0.12 c-1.12 0 -2.56 0.04 -3.6 0 c-0.4 2.32 -0.84 4.92 -1.08 7.12 c-0.08 0.72 -0.16 1.4 -0.24 2.04 c-0.04 0.6 -0.08 1.16 -0.12 1.64 c-0.08 0.92 -0.08 1.48 -0.08 1.48 s-0.2 0.08 -0.48 0.16 c-0.32 0.08 -0.68 0.16 -1.08 0.04 c-0.76 -0.16 -0.92 -0.32 -1.44 -0.32 s-0.84 -0.12 -0.84 -0.12 c0.12 -0.76 0.16 -1.48 0.28 -2.2 l0.16 -1.12 l0.16 -1.12 l-0.28 0 l-0.2 1 l-0.2 1 c-0.04 0.36 -0.12 0.68 -0.16 1.04 l-0.16 1.04 s-0.96 0 -1.72 -0.28 c0 0 0.04 -0.2 0.08 -0.52 c0 -0.2 0.04 -0.4 0.04 -0.64 l0.12 -0.84 c0.08 -0.32 0.12 -0.68 0.16 -1.04 c0.08 -0.36 0.12 -0.76 0.2 -1.16 c0.12 -0.8 0.28 -1.68 0.48 -2.64 z M35.024 11.68 c-0.24 1.4 -0.6 3.56 -1.04 5.96 c-0.48 2.36 -0.96 4.96 -1.44 7.24 c-0.52 2.8 -1.16 6.48 -1.48 9.44 c-0.12 0.76 -0.16 1.44 -0.24 2.08 c-0.04 0.64 -0.12 1.2 -0.12 1.64 c-0.08 0.96 -0.12 1.52 -0.12 1.52 s-0.16 0.08 -0.44 0.16 c-0.32 0.08 -0.68 0.12 -1.04 0.04 c-0.76 -0.16 -0.96 -0.36 -1.48 -0.32 c-0.48 0 -0.8 -0.12 -0.8 -0.12 c0.08 -0.76 0.16 -1.52 0.28 -2.24 l0.12 -1.12 l0.2 -1.12 l-0.28 0 l-0.2 1 l-0.2 1.04 c-0.04 0.32 -0.12 0.68 -0.16 1 l-0.16 1.04 s-0.96 0.04 -1.72 -0.24 c0 0 0 -0.2 0.04 -0.56 c0.04 -0.16 0.08 -0.4 0.08 -0.64 c0.04 -0.24 0.08 -0.52 0.12 -0.84 s0.12 -0.68 0.16 -1.04 s0.12 -0.76 0.2 -1.16 c0.12 -0.84 0.28 -1.72 0.44 -2.64 c0.36 -1.88 0.8 -3.88 1.2 -5.72 c0.44 -1.88 0.8 -3.6 1.08 -4.88 c0.28 -1.16 0.52 -2.4 0.76 -3.64 c-0.08 0.04 -0.12 0.12 -0.2 0.2 c-0.64 0.68 -1.12 1.16 -1.12 1.16 s-0.56 -0.48 -1.04 -1.12 c-0.44 -0.64 -0.52 -0.8 -0.84 -1.2 c-0.36 -0.4 -0.52 -0.68 -0.52 -0.68 c0.32 -0.24 0.68 -0.44 1 -0.68 l-0.2 -0.24 c-0.32 0.2 -0.68 0.36 -1 0.52 c0 0 -0.64 -0.72 -1.08 -1.4 c0 0 0.68 -0.44 1.44 -1 c0.36 -0.28 0.76 -0.6 1.12 -0.88 c0.36 -0.32 0.68 -0.64 0.88 -0.88 c0.6 -0.68 1.2 -1.6 1.48 -2.12 c0.12 -0.2 0.76 0 1.44 0.44 l0.36 0.24 c0.32 -0.28 0.72 -0.4 1.12 -0.36 l2.2 0.36 c0.76 0.12 1.32 0.88 1.2 1.76 z M57.80800000000001 13.760000000000002 c0.32 1.2 0.36 2.36 0.32 3.44 c-0.04 0.52 -0.08 1.04 -0.16 1.52 l-0.12 0.72 l-0.08 0.36 c0 0.12 -0.04 0.28 -0.08 0.4 c-0.08 0.48 -0.2 0.92 -0.32 1.4 c-0.12 0.44 -0.28 0.88 -0.4 1.32 c-0.32 1.04 -0.76 2.12 -1.2 3.24 l-0.72 1.68 c-0.16 0.28 -0.28 0.56 -0.4 0.84 s-0.28 0.56 -0.4 0.84 l-0.48 0.96 c-0.2 0.28 -0.36 0.56 -0.52 0.84 c-0.32 0.56 -0.68 1.08 -1.04 1.64 c-0.72 1.08 -1.52 2.08 -2.4 3 c-0.84 0.92 -1.76 1.76 -2.76 2.44 c-0.48 0.32 -1 0.64 -1.52 0.88 c-0.16 0.04 -0.28 0.12 -0.4 0.16 c-0.08 0.04 -0.16 0.04 -0.2 0.08 l-0.12 0.04 c-0.04 0.04 -0.08 0.04 -0.12 0.04 c-0.08 0.04 -0.16 0.08 -0.24 0.08 c-0.08 0.04 -0.16 0.04 -0.24 0.08 c-0.16 0.04 -0.28 0.08 -0.4 0.08 c-0.52 0.12 -0.92 0.16 -1.24 0.2 c-0.28 0.04 -0.52 0.04 -0.72 0.08 c-0.16 0 -0.24 0 -0.32 0.04 l-0.08 0 s-0.04 -0.04 -0.08 -0.12 c-0.08 -0.08 -0.12 -0.16 -0.2 -0.32 c-0.04 -0.16 -0.16 -0.32 -0.2 -0.52 c-0.2 -0.08 -0.36 -0.12 -0.64 -0.08 c-0.52 0 -0.84 -0.12 -0.84 -0.12 c0.16 -1.44 0.36 -2.84 0.6 -4.2 l-0.28 -0.04 c-0.08 0.32 -0.16 0.64 -0.2 0.96 l-0.2 0.96 c-0.12 0.64 -0.2 1.28 -0.32 1.96 c0 0 -0.96 0 -1.72 -0.24 c0 0 0.04 -0.2 0.08 -0.56 c0 -0.16 0.04 -0.36 0.04 -0.6 c0.04 -0.24 0.08 -0.48 0.12 -0.8 l0.08 -0.52 c0.04 -0.16 0.04 -0.28 0.08 -0.44 c0.04 -0.36 0.12 -0.72 0.2 -1.12 c0.12 -0.76 0.28 -1.6 0.44 -2.48 c0.36 -1.76 0.8 -3.68 1.24 -5.44 c0.44 -1.72 0.84 -3.36 1.12 -4.6 c0.36 -1.64 0.8 -3.52 1.12 -5.28 c0.2 -0.84 0.32 -1.68 0.48 -2.44 c0.12 -0.76 0.24 -1.4 0.32 -1.96 c0.12 -0.76 0.88 -1.32 1.68 -1.2 l0.56 0.08 l0 0 c0.52 -0.28 1.08 -0.6 1.72 -0.88 c0.68 -0.28 1.4 -0.56 2.2 -0.76 c0.4 -0.12 0.84 -0.24 1.32 -0.32 s0.96 -0.16 1.56 -0.16 l0.44 0 s0.32 0.04 0.52 0.04 c0.2 0.04 0.36 0.08 0.56 0.12 l0.28 0.08 c0.08 0 0.16 0.04 0.28 0.08 c0.2 0.08 0.32 0.12 0.48 0.2 s0.28 0.16 0.44 0.24 s0.32 0.16 0.44 0.28 c0.16 0.08 0.28 0.2 0.44 0.28 c0.56 0.48 1.04 1.04 1.44 1.64 c0.36 0.6 0.6 1.24 0.76 1.88 z M43.768 36 c0.88 -0.32 1.68 -0.84 2.44 -1.48 l-0.2 -0.2 c-0.68 0.52 -1.44 1 -2.2 1.28 l-0.24 0.08 c0 0.12 0 0.28 -0.04 0.4 c0.08 -0.04 0.16 -0.04 0.24 -0.08 z M52.968 16.44 c0 -0.48 -0.04 -0.96 -0.12 -1.36 c-0.08 -0.36 -0.24 -0.6 -0.36 -0.72 c-0.04 -0.08 -0.12 -0.12 -0.2 -0.16 c-0.04 -0.04 -0.08 -0.04 -0.08 -0.04 c-0.04 -0.04 -0.08 -0.04 -0.08 -0.04 l-0.04 -0.04 l-0.04 0 l0 0 l0 0 l-0.08 0 c-0.04 -0.04 -0.12 -0.04 -0.2 -0.04 c-0.16 0 -0.36 0.04 -0.6 0.08 c-0.44 0.08 -0.92 0.2 -1.36 0.36 c-0.92 0.28 -1.72 0.68 -2.28 1 c-0.08 0.04 -0.16 0.08 -0.2 0.08 c-0.16 0.96 -0.36 1.96 -0.6 3.04 c-0.44 2.24 -1 4.72 -1.44 6.84 c-0.52 2.4 -1.08 5.48 -1.44 8.12 c0.32 -0.2 0.68 -0.48 1.04 -0.76 c0.72 -0.6 1.44 -1.4 2.16 -2.28 c0.4 -0.48 0.76 -0.96 1.08 -1.44 c0.2 -0.28 0.36 -0.52 0.52 -0.8 c0.16 -0.24 0.36 -0.52 0.48 -0.76 l0.24 -0.36 l0.2 -0.4 c0.16 -0.32 0.28 -0.6 0.44 -0.92 c0.28 -0.56 0.56 -1.16 0.84 -1.72 c1.04 -2.32 1.76 -4.48 1.96 -6.08 c0.08 -0.52 0.16 -1.08 0.16 -1.6 z M65.39200000000001 30.36 c-0.8 0.08 -1.72 0.12 -2.56 0.2 c-1.32 2.96 -2.52 6.28 -3.08 8.16 c-0.28 0.88 -1.12 1.4 -1.92 1.16 l-2.12 -0.64 c-0.76 -0.24 -1.16 -1.16 -0.88 -2.08 c0.48 -1.44 1.24 -3.76 2.24 -6.24 s2.2 -5.16 3.32 -7.48 c1.36 -2.88 3.32 -6.56 5 -9.52 c0.44 -0.76 0.8 -1.44 1.16 -2.08 c0.4 -0.6 0.72 -1.16 1 -1.64 c0.56 -0.92 0.88 -1.48 0.88 -1.48 s0.88 -0.04 1.48 0.52 c0.56 0.52 0.6 0.76 1.08 1 s0.68 0.52 0.68 0.52 l-0.48 0.72 l0.44 0.08 c0.08 -0.08 0.16 -0.16 0.2 -0.24 c0 0 0.84 0.4 1.4 1.04 c0 0 -0.04 0.04 -0.12 0.16 c0.08 0.2 0.12 0.4 0.12 0.64 c-0.08 0.56 -0.12 1.32 -0.16 2.24 c0 0.88 0 1.92 0.04 3.04 s0.08 2.32 0.12 3.52 c0 1.24 -0.04 2.48 -0.08 3.64 c-0.08 1.44 -0.24 3.08 -0.4 4.68 c-0.2 1.6 -0.4 3.2 -0.52 4.6 s-0.16 2.6 -0.2 3.44 l0 1 l0 0.36 s-0.16 0.08 -0.44 0.2 c-0.28 0.08 -0.68 0.16 -1.04 0.08 c-0.8 -0.12 -0.96 -0.24 -1.48 -0.2 s-0.84 -0.04 -0.84 -0.04 c0.04 -1.44 0.2 -2.88 0.4 -4.28 l-0.32 0 c-0.2 1.28 -0.4 2.6 -0.52 3.92 c0 0 -0.24 0.04 -0.56 0 c-0.36 0 -0.76 0 -1.16 -0.12 c0 0 0 -0.8 0.12 -2 c0.12 -1.24 0.36 -2.88 0.64 -4.64 c0.12 -0.76 0.24 -1.52 0.4 -2.28 c-0.72 0 -1.36 0 -1.84 0.04 z M68.03200000000001 20.52 c-0.6 1.04 -1.2 2.08 -1.76 3.12 c-0.28 0.48 -0.56 1 -0.84 1.48 c0.24 0 0.44 -0.04 0.64 -0.08 c0.56 -0.04 1.2 -0.12 1.88 -0.2 c0.04 -0.72 0.08 -1.36 0.08 -1.96 c0.04 -0.72 0.04 -1.52 0 -2.36 z M82.25600000000001 39.92 c-0.28 0.08 -0.68 0.12 -1.04 0.04 c-0.76 -0.2 -0.96 -0.36 -1.48 -0.36 c-0.52 0.04 -0.84 -0.12 -0.84 -0.12 c0.16 -1.44 0.36 -2.88 0.6 -4.28 l-0.28 -0.04 c-0.08 0.32 -0.12 0.64 -0.2 0.96 l-0.2 1 c-0.12 0.68 -0.2 1.36 -0.32 2 c0 0 -0.92 0.04 -1.72 -0.24 c0 0 0.04 -0.2 0.08 -0.52 c0 -0.2 0.04 -0.4 0.04 -0.64 c0.04 -0.24 0.08 -0.52 0.12 -0.84 c0.08 -0.28 0.12 -0.64 0.16 -1 s0.12 -0.72 0.2 -1.12 c0.12 -0.8 0.28 -1.68 0.48 -2.56 c0.36 -1.84 0.76 -3.76 1.2 -5.56 s0.84 -3.48 1.12 -4.72 c0.36 -1.72 0.8 -3.64 1.12 -5.44 c0.16 -0.68 0.28 -1.36 0.4 -1.96 c-2.04 -0.04 -4.32 0 -5.6 0 c-0.52 0 -0.96 -0.68 -0.96 -1.52 l0.04 -2.28 c0 -0.8 0.44 -1.48 0.96 -1.48 c1.72 0 5.48 -0.04 8.4 -0.04 c1.84 0 4.24 -0.04 6.2 -0.04 l3.48 0 s0.24 0.8 0.12 1.56 c-0.12 0.8 -0.24 1 -0.24 1.52 c0.04 0.52 -0.08 0.84 -0.08 0.84 l-2.76 -0.24 l0 0.28 c0.84 0.12 1.68 0.28 2.52 0.4 c0 0 0.04 1 -0.12 1.8 c0 0 -1.88 -0.2 -4.2 -0.4 c-0.84 -0.08 -1.72 -0.12 -2.6 -0.2 c-0.2 1.12 -0.44 2.44 -0.72 3.84 c-0.44 2.32 -1 4.84 -1.44 7.04 c-0.56 2.68 -1.2 6.24 -1.56 9.12 c-0.08 0.72 -0.16 1.36 -0.2 2 c-0.04 0.6 -0.08 1.12 -0.12 1.6 c-0.08 0.88 -0.08 1.44 -0.08 1.44 s-0.2 0.08 -0.48 0.16 z M98.2 30.36 c-0.8 0.08 -1.72 0.12 -2.56 0.2 c-1.32 2.96 -2.52 6.28 -3.08 8.16 c-0.28 0.88 -1.12 1.4 -1.92 1.16 l-2.12 -0.64 c-0.76 -0.24 -1.16 -1.16 -0.88 -2.08 c0.48 -1.44 1.24 -3.76 2.24 -6.24 s2.2 -5.16 3.32 -7.48 c1.36 -2.88 3.32 -6.56 5 -9.52 c0.44 -0.76 0.8 -1.44 1.16 -2.08 c0.4 -0.6 0.72 -1.16 1 -1.64 c0.56 -0.92 0.88 -1.48 0.88 -1.48 s0.88 -0.04 1.48 0.52 c0.56 0.52 0.6 0.76 1.08 1 s0.68 0.52 0.68 0.52 l-0.48 0.72 l0.44 0.08 c0.08 -0.08 0.16 -0.16 0.2 -0.24 c0 0 0.84 0.4 1.4 1.04 c0 0 -0.04 0.04 -0.12 0.16 c0.08 0.2 0.12 0.4 0.12 0.64 c-0.08 0.56 -0.12 1.32 -0.16 2.24 c0 0.88 0 1.92 0.04 3.04 s0.08 2.32 0.12 3.52 c0 1.24 -0.04 2.48 -0.08 3.64 c-0.08 1.44 -0.24 3.08 -0.4 4.68 c-0.2 1.6 -0.4 3.2 -0.52 4.6 s-0.16 2.6 -0.2 3.44 l0 1 l0 0.36 s-0.16 0.08 -0.44 0.2 c-0.28 0.08 -0.68 0.16 -1.04 0.08 c-0.8 -0.12 -0.96 -0.24 -1.48 -0.2 s-0.84 -0.04 -0.84 -0.04 c0.04 -1.44 0.2 -2.88 0.4 -4.28 l-0.32 0 c-0.2 1.28 -0.4 2.6 -0.52 3.92 c0 0 -0.24 0.04 -0.56 0 c-0.36 0 -0.76 0 -1.16 -0.12 c0 0 0 -0.8 0.12 -2 c0.12 -1.24 0.36 -2.88 0.64 -4.64 c0.12 -0.76 0.24 -1.52 0.4 -2.28 c-0.72 0 -1.36 0 -1.84 0.04 z M100.84 20.52 c-0.6 1.04 -1.2 2.08 -1.76 3.12 c-0.28 0.48 -0.56 1 -0.84 1.48 c0.24 0 0.44 -0.04 0.64 -0.08 c0.56 -0.04 1.2 -0.12 1.88 -0.2 c0.04 -0.72 0.08 -1.36 0.08 -1.96 c0.04 -0.72 0.04 -1.52 0 -2.36 z M108.544 34.480000000000004 c0.12 -0.84 0.28 -1.76 0.44 -2.72 c0.36 -1.88 0.8 -3.96 1.24 -5.88 c0.4 -1.88 0.8 -3.64 1.08 -5 c0.4 -1.8 0.84 -3.84 1.16 -5.72 c0.2 -0.96 0.32 -1.88 0.48 -2.68 c0.12 -0.84 0.24 -1.56 0.32 -2.16 c0.12 -0.84 0.88 -1.44 1.68 -1.32 l2.2 0.32 c0.76 0.12 1.32 0.92 1.2 1.8 c-0.2 1.44 -0.56 3.68 -1.04 6.12 c-0.24 1.4 -0.52 2.84 -0.8 4.24 c0.08 0 0.2 -0.04 0.32 -0.04 c1 -0.04 2.08 -0.08 3.04 -0.12 c1.04 0 2.32 -0.04 3.52 0 c0 -0.16 0.04 -0.28 0.08 -0.44 c0.36 -1.8 0.8 -3.84 1.16 -5.72 c0.16 -0.96 0.32 -1.88 0.44 -2.68 c0.12 -0.84 0.24 -1.56 0.32 -2.16 c0.12 -0.84 0.88 -1.44 1.68 -1.32 l2.2 0.32 c0.8 0.12 1.32 0.92 1.2 1.8 c-0.2 1.44 -0.56 3.68 -1.04 6.12 c-0.44 2.48 -1 5.12 -1.44 7.48 c-0.56 2.84 -1.2 6.6 -1.52 9.64 c-0.08 0.76 -0.16 1.48 -0.24 2.12 c-0.04 0.64 -0.08 1.24 -0.12 1.72 c-0.04 0.96 -0.08 1.52 -0.08 1.52 s-0.2 0.12 -0.48 0.2 c-0.28 0.04 -0.68 0.12 -1.04 0.04 c-0.76 -0.2 -0.92 -0.36 -1.48 -0.36 c-0.52 0.04 -0.8 -0.12 -0.8 -0.12 c0.16 -1.52 0.32 -3.04 0.56 -4.56 l-0.28 -0.04 c-0.04 0.36 -0.12 0.72 -0.2 1.04 l-0.16 1.08 c-0.16 0.68 -0.24 1.4 -0.36 2.08 c0 0 -0.92 0.04 -1.72 -0.24 c0 0 0.04 -0.2 0.08 -0.56 c0 -0.16 0.04 -0.4 0.08 -0.64 c0.04 -0.28 0.08 -0.56 0.12 -0.88 s0.08 -0.68 0.12 -1.08 c0.08 -0.36 0.12 -0.76 0.2 -1.2 c0.12 -0.84 0.28 -1.76 0.48 -2.72 c0.28 -1.52 0.6 -3.16 0.96 -4.72 c-0.48 -0.08 -0.96 -0.12 -1.44 -0.16 c-0.72 -0.08 -1.4 -0.12 -1.92 -0.12 c-1.04 0 -2.32 0.08 -3.28 0.12 c-0.44 2.44 -0.88 5.2 -1.16 7.48 c-0.08 0.76 -0.16 1.48 -0.2 2.12 s-0.08 1.24 -0.12 1.72 c-0.08 0.96 -0.08 1.52 -0.08 1.52 s-0.2 0.12 -0.48 0.2 c-0.28 0.04 -0.68 0.12 -1.08 0.04 c-0.72 -0.2 -0.92 -0.36 -1.44 -0.36 c-0.52 0.04 -0.84 -0.12 -0.84 -0.12 c0.16 -1.52 0.36 -3.04 0.6 -4.56 l-0.28 -0.04 c-0.08 0.36 -0.16 0.72 -0.2 1.04 l-0.2 1.08 c-0.12 0.68 -0.2 1.4 -0.32 2.08 c0 0 -0.96 0.04 -1.72 -0.24 c0 0 0.04 -0.2 0.08 -0.56 c0 -0.16 0.04 -0.4 0.04 -0.64 c0.04 -0.28 0.08 -0.56 0.12 -0.88 s0.12 -0.68 0.16 -1.08 c0.04 -0.36 0.12 -0.76 0.2 -1.2 z M146.648 38.84 c0 0 -0.76 0.44 -1.52 0.28 c-0.8 -0.16 -0.96 -0.32 -1.48 -0.28 s-0.84 -0.12 -0.84 -0.12 c0.04 -0.44 0.08 -0.92 0.12 -1.4 c-0.12 0.12 -0.28 0.2 -0.4 0.32 l-0.04 0.04 l-0.08 0.68 s-0.4 0.04 -0.88 0 c-0.36 0.2 -0.68 0.44 -1.08 0.64 s-0.8 0.44 -1.28 0.64 c-0.2 0.08 -0.48 0.16 -0.72 0.28 c-0.12 0.04 -0.28 0.08 -0.4 0.12 l-0.2 0.04 l-0.2 0.08 c-0.16 0 -0.32 0.04 -0.48 0.08 l-0.24 0.04 c-0.12 0 -0.2 0 -0.32 0.04 c-0.36 0 -0.72 0 -1.12 -0.04 c-0.72 -0.08 -1.44 -0.28 -2.08 -0.68 c-0.48 -0.24 -0.88 -0.56 -1.24 -0.96 c-0.36 -0.36 -0.68 -0.8 -0.92 -1.24 l-0.12 -0.16 l-0.08 -0.16 l-0.12 -0.32 c-0.04 -0.12 -0.08 -0.2 -0.12 -0.32 c-0.04 -0.08 -0.08 -0.2 -0.12 -0.28 c-0.12 -0.4 -0.2 -0.76 -0.28 -1.16 c-0.24 -1.44 -0.16 -2.68 -0.08 -3.8 c0.04 -0.56 0.12 -1.08 0.2 -1.56 c0.04 -0.48 0.12 -0.92 0.2 -1.36 c0.04 -0.48 0.12 -0.92 0.16 -1.32 c0.08 -0.44 0.16 -0.84 0.24 -1.24 c0.48 -2.56 1.2 -5.36 1.72 -7.8 c0.24 -1.24 0.44 -2.4 0.56 -3.4 c0 -0.16 0 -0.28 0.04 -0.4 l0 -0.36 c0.04 -0.24 0.04 -0.44 0.04 -0.68 l0 -0.6 s0.04 -0.4 0 -0.56 c0 -0.28 0 -0.48 0.08 -0.72 c0.04 -0.12 0.04 -0.2 0.08 -0.32 c0.04 -0.08 0.08 -0.2 0.16 -0.28 c0.2 -0.36 0.56 -0.64 0.96 -0.72 l2.16 -0.36 c0.4 -0.08 0.8 0.12 1.12 0.52 c0.16 0.2 0.32 0.44 0.4 0.72 s0.16 0.6 0.16 0.92 c0.04 1.08 0.04 2.44 -0.16 3.96 c-0.2 1.48 -0.52 3.12 -0.88 4.76 c-0.36 1.68 -0.8 3.36 -1.12 4.96 l-0.24 1.2 c-0.04 0.4 -0.12 0.8 -0.16 1.2 c-0.12 0.8 -0.2 1.6 -0.32 2.4 c-0.08 0.68 -0.16 1.4 -0.16 2.08 s0.04 1.28 0.12 1.76 c0.04 0.2 0.12 0.4 0.16 0.52 c0.04 0.04 0.08 0.12 0.08 0.16 l0.04 0 l0 0 s-0.04 0 0 0 l0 0 c0.04 0.04 0.08 0.04 0.12 0.04 c0.04 0.04 0.08 0.04 0.08 0 l0.04 0 l-0.04 0 l0.08 0 c0.04 -0.04 0.08 -0.04 0.12 -0.04 c0.08 -0.04 0.12 -0.04 0.2 -0.08 c0.2 -0.08 0.48 -0.2 0.76 -0.36 c0.24 -0.12 0.52 -0.32 0.8 -0.48 c0.52 -0.36 1 -0.76 1.44 -1.16 s0.84 -0.8 1.2 -1.16 c0.32 -0.32 0.56 -0.6 0.8 -0.84 c0.28 -1.64 0.56 -3.36 0.84 -4.96 c0.32 -1.84 0.6 -3.56 0.84 -4.88 c0.56 -3.52 1.2 -8.04 1.44 -10.32 c0.08 -0.84 0.8 -1.44 1.64 -1.36 l2.2 0.24 c0.8 0.08 1.36 0.84 1.28 1.68 c-0.16 1.4 -0.44 3.56 -0.8 5.92 c-0.32 2.36 -0.72 4.96 -1.04 7.24 c-0.36 2.6 -1.08 9.44 -1.08 9.48 c-0.08 0.72 -0.12 1.44 -0.16 2.08 c0 0.6 -0.04 1.16 -0.08 1.64 l0 1.48 z M142.84799999999998 35 c0.12 -0.12 0.24 -0.2 0.36 -0.32 l0.04 -0.36 l-0.16 0 c-0.04 0.04 -0.08 0.08 -0.16 0.12 z M168.23199999999997 27.72 c0 0 0.28 1.72 -0.24 4 c-0.32 1 -0.84 1.88 -1.4 2.68 c-1.2 1.6 -2.64 2.8 -3.96 3.72 c-1.36 0.92 -2.64 1.56 -3.6 1.96 c-0.48 0.2 -0.88 0.36 -1.16 0.44 c-0.32 0.08 -0.48 0.16 -0.48 0.16 s-0.16 -0.16 -0.36 -0.4 c-0.16 -0.24 -0.36 -0.56 -0.36 -0.96 c-0.08 -0.8 0 -1 -0.16 -1.48 c-0.2 -0.52 -0.2 -0.84 -0.2 -0.84 c1.24 -0.28 2.44 -0.8 3.6 -1.4 l-0.16 -0.24 c-1.08 0.52 -2.16 0.92 -3.28 1.16 c0 0 -0.08 -0.24 -0.2 -0.56 c-0.08 -0.32 -0.2 -0.76 -0.24 -1.16 l0.08 0 c0.08 -0.04 0.16 -0.04 0.28 -0.08 c0.24 -0.08 0.6 -0.2 1.04 -0.36 c0.84 -0.32 2.04 -0.92 3.16 -1.72 c0.56 -0.4 1.08 -0.84 1.48 -1.32 c0.24 -0.24 0.4 -0.48 0.56 -0.72 s0.28 -0.48 0.36 -0.68 s0.12 -0.4 0.16 -0.56 l0 -0.28 l0 -0.08 l0 -0.04 l0 -0.04 c0 -0.08 -0.04 -0.12 -0.08 -0.16 l0 -0.04 l-0.04 -0.04 c0 -0.04 -0.04 -0.04 -0.08 -0.08 c-0.08 -0.08 -0.24 -0.2 -0.44 -0.28 s-0.48 -0.16 -0.76 -0.24 c-0.56 -0.12 -1.28 -0.2 -1.96 -0.16 c-0.6 0.04 -1.12 0.08 -1.64 0.2 c-0.64 0.4 -1.12 0.64 -1.32 0.76 c-0.32 1.84 -0.64 3.76 -0.88 5.44 c-0.08 0.68 -0.16 1.36 -0.2 1.96 c-0.04 0.56 -0.08 1.08 -0.12 1.52 c-0.08 0.88 -0.08 1.44 -0.08 1.44 s-0.2 0.08 -0.48 0.16 c-0.32 0.04 -0.68 0.12 -1.08 0.04 c-0.76 -0.2 -0.92 -0.36 -1.44 -0.32 c-0.52 0 -0.84 -0.12 -0.84 -0.12 c0.16 -1.44 0.36 -2.84 0.6 -4.2 l-0.28 -0.04 c-0.08 0.32 -0.16 0.64 -0.2 0.96 l-0.2 0.96 c-0.12 0.64 -0.2 1.28 -0.32 1.96 c0 0 -0.96 0 -1.72 -0.24 c0 0 0.04 -0.2 0.08 -0.56 c0 -0.16 0.04 -0.36 0.04 -0.6 c0.04 -0.24 0.08 -0.48 0.12 -0.8 c0.04 -0.28 0.12 -0.6 0.16 -0.96 s0.12 -0.72 0.2 -1.12 c0.12 -0.76 0.28 -1.6 0.44 -2.48 c0.36 -1.76 0.8 -3.68 1.24 -5.44 c0.44 -1.72 0.84 -3.36 1.12 -4.6 c0.36 -1.64 0.8 -3.52 1.12 -5.28 c0.2 -0.84 0.32 -1.68 0.48 -2.44 c0.12 -0.76 0.24 -1.4 0.32 -1.96 c0.12 -0.76 0.88 -1.32 1.68 -1.2 l0.84 0.12 c0.32 -0.2 0.68 -0.4 1.04 -0.6 c0.56 -0.28 1.2 -0.56 1.88 -0.8 c0.68 -0.2 1.44 -0.4 2.28 -0.48 s1.76 -0.08 2.76 0.2 c0.12 0.04 0.24 0.04 0.36 0.12 c0.16 0.04 0.28 0.08 0.4 0.12 l0.2 0.08 c0.04 0.04 0.12 0.08 0.2 0.12 c0.12 0.04 0.24 0.12 0.4 0.2 c0.48 0.28 0.96 0.68 1.36 1.12 c0.08 0.12 0.16 0.24 0.28 0.36 l0.24 0.36 c0.16 0.28 0.24 0.52 0.4 0.8 c0.04 0.12 0.08 0.24 0.12 0.4 l0.12 0.36 c0.04 0.12 0.08 0.24 0.08 0.36 l0.08 0.36 c0.04 0.16 0.04 0.24 0.04 0.36 l0.04 0.36 l0 0.36 l0 0.4 l0 0.2 l0 0.2 c-0.04 0.12 -0.04 0.24 -0.08 0.36 c0 0.16 -0.04 0.28 -0.08 0.4 c0 0.08 -0.04 0.2 -0.08 0.32 c-0.32 1.12 -0.88 2.08 -1.48 2.92 s-1.28 1.6 -2 2.28 c-0.48 0.44 -0.92 0.88 -1.4 1.28 c0.16 0.08 0.36 0.16 0.52 0.24 c0.76 0.4 1.56 1 2.16 1.84 c0.16 0.2 0.32 0.4 0.44 0.64 s0.2 0.44 0.28 0.68 c0.08 0.12 0.12 0.24 0.16 0.36 s0.04 0.24 0.08 0.36 z M164.47199999999998 15.52 c0.04 -0.08 0.04 -0.12 0.04 -0.2 l0 -0.24 l0 -0.08 l-0.04 -0.08 l0 -0.12 l0 -0.04 l-0.04 -0.04 l0 -0.08 c-0.04 -0.08 -0.08 -0.12 -0.12 -0.16 s-0.08 -0.04 -0.24 -0.12 c-0.16 -0.04 -0.4 -0.08 -0.72 -0.04 c-0.28 0 -0.6 0.04 -0.96 0.12 c-0.64 0.16 -1.32 0.44 -1.84 0.76 c-0.48 0.28 -0.84 0.52 -1.08 0.76 c-0.16 0.84 -0.32 1.72 -0.52 2.64 c-0.16 0.84 -0.36 1.68 -0.52 2.56 c0.44 -0.32 0.96 -0.64 1.44 -0.96 c0.72 -0.48 1.44 -1.04 2.12 -1.6 c0.64 -0.56 1.28 -1.16 1.72 -1.72 c0.24 -0.28 0.4 -0.56 0.52 -0.8 c0.16 -0.24 0.2 -0.44 0.24 -0.56 z"></path></g></svg>